<?xml version="1.0" encoding="UTF-8" ?>
<svg
  width="977px"
  height="103px"
  viewBox="0 0 977 103"
  version="1.1"
  xmlns="http://www.w3.org/2000/svg"
  xmlns:xlink="http://www.w3.org/1999/xlink"
>
  <title>webpack mjml Plugin</title>
  <defs>
    <filter x="-0.8%" y="-8.8%" width="101.7%" height="117.6%" filterUnits="objectBoundingBox" id="filter-1">
      <feOffset dx="0" dy="2" in="SourceAlpha" result="shadowOffsetOuter1" />
      <feGaussianBlur stdDeviation="1" in="shadowOffsetOuter1" result="shadowBlurOuter1" />
      <feColorMatrix
        values="0 0 0 0 0   0 0 0 0 0   0 0 0 0 0  0 0 0 0.2 0"
        type="matrix"
        in="shadowBlurOuter1"
        result="shadowMatrixOuter1"
      />
      <feMerge>
        <feMergeNode in="shadowMatrixOuter1" />
        <feMergeNode in="SourceGraphic" />
      </feMerge>
    </filter>
    <linearGradient x1="50%" y1="50%" x2="50%" y2="100%" id="linearGradient-2">
      <stop stop-color="#D96B48" offset="0%" />
      <stop stop-color="#DA5A48" offset="37.9360465%" />
      <stop stop-color="#DD3648" offset="100%" />
    </linearGradient>
    <polygon
      id="path-3"
      points="57.78 63 45.54 63 36.27 35.73 27 63 14.85 63 0 19.71 13.14 19.71 21.78 47.43 31.32 19.71 41.4 19.71 51.12 47.43 59.94 19.71 72.54 19.71"
    />
    <linearGradient x1="50%" y1="50%" x2="50%" y2="100%" id="linearGradient-4">
      <stop stop-color="#D96B48" offset="0%" />
      <stop stop-color="#DA5A48" offset="37.9360465%" />
      <stop stop-color="#DD3648" offset="100%" />
    </linearGradient>
    <path
      d="M89.46,45.09 C89.46,46.05 89.64,47.1 90,48.24 C90.36,49.38 90.975,50.43 91.845,51.39 C92.715,52.35 93.855,53.145 95.265,53.775 C96.675,54.405 98.43,54.72 100.53,54.72 C102.39,54.72 104.04,54.495 105.48,54.045 C106.92,53.595 108.165,53.07 109.215,52.47 C110.265,51.87 111.12,51.27 111.78,50.67 C112.44,50.07 112.89,49.65 113.13,49.41 L119.88,55.89 C117.78,58.23 115.125,60.225 111.915,61.875 C108.705,63.525 104.76,64.35 100.08,64.35 C95.94,64.35 92.385,63.705 89.415,62.415 C86.445,61.125 84.015,59.415 82.125,57.285 C80.235,55.155 78.84,52.71 77.94,49.95 C77.04,47.19 76.59,44.34 76.59,41.4 C76.59,38.52 77.04,35.7 77.94,32.94 C78.84,30.18 80.235,27.69 82.125,25.47 C84.015,23.25 86.43,21.465 89.37,20.115 C92.31,18.765 95.79,18.09 99.81,18.09 C100.77,18.09 101.865,18.15 103.095,18.27 C104.325,18.39 105.585,18.645 106.875,19.035 C108.165,19.425 109.47,19.995 110.79,20.745 C112.11,21.495 113.37,22.47 114.57,23.67 C116.07,25.17 117.255,26.745 118.125,28.395 C118.995,30.045 119.655,31.77 120.105,33.57 C120.555,35.37 120.84,37.245 120.96,39.195 C121.08,41.145 121.14,43.11 121.14,45.09 L89.46,45.09 Z M108.9,36.63 C108.9,36.15 108.78,35.385 108.54,34.335 C108.3,33.285 107.85,32.235 107.19,31.185 C106.53,30.135 105.57,29.22 104.31,28.44 C103.05,27.66 101.4,27.27 99.36,27.27 C97.38,27.27 95.745,27.675 94.455,28.485 C93.165,29.295 92.16,30.225 91.44,31.275 C90.72,32.325 90.225,33.375 89.955,34.425 C89.685,35.475 89.55,36.21 89.55,36.63 L108.9,36.63 Z"
      id="path-5"
    />
    <linearGradient x1="50%" y1="50%" x2="50%" y2="100%" id="linearGradient-6">
      <stop stop-color="#D96B48" offset="0%" />
      <stop stop-color="#DA5A48" offset="37.9360465%" />
      <stop stop-color="#DD3648" offset="100%" />
    </linearGradient>
    <path
      d="M176.85,41.4 C176.85,44.22 176.4,46.995 175.5,49.725 C174.6,52.455 173.265,54.9 171.495,57.06 C169.725,59.22 167.505,60.96 164.835,62.28 C162.165,63.6 159.06,64.26 155.52,64.26 C153.12,64.26 151.05,63.96 149.31,63.36 C147.57,62.76 146.115,62.085 144.945,61.335 C143.775,60.585 142.875,59.88 142.245,59.22 C141.615,58.56 141.24,58.14 141.12,57.96 L140.76,63 L129.15,63 L129.15,1.98 L141.75,1.98 L141.75,24.57 C141.93,24.39 142.35,23.955 143.01,23.265 C143.67,22.575 144.615,21.84 145.845,21.06 C147.075,20.28 148.59,19.59 150.39,18.99 C152.19,18.39 154.32,18.09 156.78,18.09 C159,18.09 161.31,18.51 163.71,19.35 C166.11,20.19 168.27,21.54 170.19,23.4 C172.11,25.26 173.7,27.675 174.96,30.645 C176.22,33.615 176.85,37.2 176.85,41.4 Z M163.89,41.4 C163.89,37.56 162.915,34.41 160.965,31.95 C159.015,29.49 156.27,28.26 152.73,28.26 C151.05,28.26 149.52,28.59 148.14,29.25 C146.76,29.91 145.575,30.825 144.585,31.995 C143.595,33.165 142.83,34.56 142.29,36.18 C141.75,37.8 141.48,39.54 141.48,41.4 C141.48,43.26 141.75,44.985 142.29,46.575 C142.83,48.165 143.58,49.53 144.54,50.67 C145.5,51.81 146.67,52.695 148.05,53.325 C149.43,53.955 150.99,54.27 152.73,54.27 C154.47,54.27 156.03,53.94 157.41,53.28 C158.79,52.62 159.96,51.72 160.92,50.58 C161.88,49.44 162.615,48.09 163.125,46.53 C163.635,44.97 163.89,43.26 163.89,41.4 Z"
      id="path-7"
    />
    <linearGradient x1="50%" y1="50%" x2="50%" y2="100%" id="linearGradient-8">
      <stop stop-color="#D96B48" offset="0%" />
      <stop stop-color="#DA5A48" offset="37.9360465%" />
      <stop stop-color="#DD3648" offset="100%" />
    </linearGradient>
    <path
      d="M232.65,41.49 C232.65,44.31 232.2,47.07 231.3,49.77 C230.4,52.47 229.065,54.9 227.295,57.06 C225.525,59.22 223.305,60.96 220.635,62.28 C217.965,63.6 214.86,64.26 211.32,64.26 C209.16,64.26 207.27,64.035 205.65,63.585 C204.03,63.135 202.68,62.595 201.6,61.965 C200.52,61.335 199.65,60.705 198.99,60.075 C198.33,59.445 197.85,58.95 197.55,58.59 L197.55,79.74 L184.95,79.74 L184.95,19.71 L196.83,19.71 L197.01,25.38 C197.13,25.26 197.52,24.81 198.18,24.03 C198.84,23.25 199.8,22.425 201.06,21.555 C202.32,20.685 203.91,19.89 205.83,19.17 C207.75,18.45 210,18.09 212.58,18.09 C214.8,18.09 217.11,18.51 219.51,19.35 C221.91,20.19 224.07,21.555 225.99,23.445 C227.91,25.335 229.5,27.765 230.76,30.735 C232.02,33.705 232.65,37.29 232.65,41.49 Z M219.69,41.49 C219.69,37.59 218.715,34.41 216.765,31.95 C214.815,29.49 212.07,28.26 208.53,28.26 C206.79,28.26 205.23,28.59 203.85,29.25 C202.47,29.91 201.3,30.825 200.34,31.995 C199.38,33.165 198.63,34.56 198.09,36.18 C197.55,37.8 197.28,39.54 197.28,41.4 C197.28,45.18 198.285,48.27 200.295,50.67 C202.305,53.07 205.05,54.27 208.53,54.27 C210.27,54.27 211.83,53.94 213.21,53.28 C214.59,52.62 215.76,51.72 216.72,50.58 C217.68,49.44 218.415,48.09 218.925,46.53 C219.435,44.97 219.69,43.29 219.69,41.49 Z"
      id="path-9"
    />
    <linearGradient x1="50%" y1="50%" x2="50%" y2="100%" id="linearGradient-10">
      <stop stop-color="#D96B48" offset="0%" />
      <stop stop-color="#DA5A48" offset="37.9360465%" />
      <stop stop-color="#DD3648" offset="100%" />
    </linearGradient>
    <path
      d="M268.11,63 L267.84,58.32 C267.48,58.74 266.925,59.28 266.175,59.94 C265.425,60.6 264.465,61.23 263.295,61.83 C262.125,62.43 260.76,62.955 259.2,63.405 C257.64,63.855 255.87,64.08 253.89,64.08 C251.91,64.08 250.005,63.81 248.175,63.27 C246.345,62.73 244.725,61.905 243.315,60.795 C241.905,59.685 240.765,58.26 239.895,56.52 C239.025,54.78 238.59,52.74 238.59,50.4 C238.59,48.36 238.92,46.605 239.58,45.135 C240.24,43.665 241.08,42.42 242.1,41.4 C244.38,39.12 246.93,37.635 249.75,36.945 C252.57,36.255 255.42,35.91 258.3,35.91 L267.21,35.91 L267.21,35.01 C267.21,32.25 266.4,30.345 264.78,29.295 C263.16,28.245 261.09,27.72 258.57,27.72 C256.95,27.72 255.435,27.96 254.025,28.44 C252.615,28.92 251.37,29.46 250.29,30.06 C249.21,30.66 248.325,31.245 247.635,31.815 C246.945,32.385 246.51,32.76 246.33,32.94 L240.39,25.65 C240.63,25.35 241.2,24.795 242.1,23.985 C243,23.175 244.23,22.335 245.79,21.465 C247.35,20.595 249.24,19.815 251.46,19.125 C253.68,18.435 256.29,18.09 259.29,18.09 C266.07,18.09 271.11,19.77 274.41,23.13 C275.55,24.27 276.45,25.485 277.11,26.775 C277.77,28.065 278.265,29.43 278.595,30.87 C278.925,32.31 279.135,33.84 279.225,35.46 C279.315,37.08 279.36,38.82 279.36,40.68 L279.36,63 L268.11,63 Z M267.21,43.92 L260.73,43.92 C259.65,43.92 258.525,43.98 257.355,44.1 C256.185,44.22 255.105,44.475 254.115,44.865 C253.125,45.255 252.3,45.855 251.64,46.665 C250.98,47.475 250.65,48.57 250.65,49.95 C250.65,51.69 251.25,53.01 252.45,53.91 C253.65,54.81 255.18,55.26 257.04,55.26 C258.78,55.26 260.25,55.035 261.45,54.585 C262.65,54.135 263.67,53.52 264.51,52.74 C266.31,51.12 267.21,48.93 267.21,46.17 L267.21,43.92 Z"
      id="path-11"
    />
    <linearGradient x1="50%" y1="50%" x2="50%" y2="100%" id="linearGradient-12">
      <stop stop-color="#D96B48" offset="0%" />
      <stop stop-color="#DA5A48" offset="37.9360465%" />
      <stop stop-color="#DD3648" offset="100%" />
    </linearGradient>
    <path
      d="M330.39,55.17 C330.27,55.35 329.835,55.92 329.085,56.88 C328.335,57.84 327.165,58.875 325.575,59.985 C323.985,61.095 321.975,62.1 319.545,63 C317.115,63.9 314.19,64.35 310.77,64.35 C306.81,64.35 303.33,63.735 300.33,62.505 C297.33,61.275 294.825,59.595 292.815,57.465 C290.805,55.335 289.305,52.875 288.315,50.085 C287.325,47.295 286.83,44.34 286.83,41.22 C286.83,38.28 287.325,35.415 288.315,32.625 C289.305,29.835 290.79,27.36 292.77,25.2 C294.75,23.04 297.255,21.315 300.285,20.025 C303.315,18.735 306.87,18.09 310.95,18.09 C314.19,18.09 316.995,18.51 319.365,19.35 C321.735,20.19 323.7,21.12 325.26,22.14 C326.82,23.16 327.99,24.135 328.77,25.065 C329.55,25.995 330,26.55 330.12,26.73 L322.74,33.39 C322.56,33.21 322.155,32.835 321.525,32.265 C320.895,31.695 320.1,31.11 319.14,30.51 C318.18,29.91 317.055,29.385 315.765,28.935 C314.475,28.485 313.05,28.26 311.49,28.26 C309.51,28.26 307.8,28.62 306.36,29.34 C304.92,30.06 303.705,31.035 302.715,32.265 C301.725,33.495 300.99,34.89 300.51,36.45 C300.03,38.01 299.79,39.63 299.79,41.31 C299.79,43.05 300.03,44.685 300.51,46.215 C300.99,47.745 301.71,49.11 302.67,50.31 C303.63,51.51 304.83,52.455 306.27,53.145 C307.71,53.835 309.42,54.18 311.4,54.18 C313.08,54.18 314.595,53.955 315.945,53.505 C317.295,53.055 318.45,52.515 319.41,51.885 C320.37,51.255 321.15,50.64 321.75,50.04 C322.35,49.44 322.77,48.99 323.01,48.69 L330.39,55.17 Z"
      id="path-13"
    />
    <linearGradient x1="50%" y1="50%" x2="50%" y2="100%" id="linearGradient-14">
      <stop stop-color="#D96B48" offset="0%" />
      <stop stop-color="#DA5A48" offset="37.9360465%" />
      <stop stop-color="#DD3648" offset="100%" />
    </linearGradient>
    <polygon
      id="path-15"
      points="367.2 63 350.19 43.2 350.19 63 337.59 63 337.59 1.98 350.19 1.98 350.19 38.07 367.2 19.71 382.14 19.71 362.34 40.23 382.68 63"
    />
    <linearGradient x1="50%" y1="50%" x2="50%" y2="100%" id="linearGradient-16">
      <stop stop-color="#D96B48" offset="0%" />
      <stop stop-color="#DA5A48" offset="37.9360465%" />
      <stop stop-color="#DD3648" offset="100%" />
    </linearGradient>
    <path
      d="M508.14,61.29 C508.14,62.19 508.95,63 509.85,63 L517.14,63 C518.04,63 518.85,62.19 518.85,61.29 L518.85,41.49 C519.75,39.06 521.91,35.82 526.41,35.82 C531,35.82 533.07,38.79 533.07,43.47 L533.07,61.29 C533.07,62.19 533.79,63 534.78,63 L541.53,63 C542.43,63 543.24,62.19 543.24,61.29 L543.24,43.02 C543.24,41.4 543.15,39.6 543.15,39.6 C543.15,39.6 545.49,35.82 550.71,35.82 C555.21,35.82 557.46,38.79 557.46,43.47 L557.46,61.29 C557.46,62.19 558.18,63 559.17,63 L566.46,63 C567.45,63 568.17,62.19 568.17,61.29 L568.17,44.1 C568.17,34.65 563.94,26.1 552.42,26.1 C545.94,26.1 541.26,30.06 539.73,31.68 C536.76,28.08 533.16,26.1 528.03,26.1 C521.64,26.1 517.5,29.7 515.97,31.41 L514.71,27.99 C514.53,27.45 513.99,27 513.18,27 L509.85,27 C508.95,27 508.14,27.72 508.14,28.71 L508.14,61.29 Z"
      id="path-17"
    />
    <linearGradient x1="50%" y1="50%" x2="50%" y2="100%" id="linearGradient-18">
      <stop stop-color="#D96B48" offset="0%" />
      <stop stop-color="#DA5A48" offset="37.9360465%" />
      <stop stop-color="#DD3648" offset="100%" />
    </linearGradient>
    <path
      d="M583.65,14.22 C587.16,14.22 589.95,11.43 589.95,8.01 C589.95,4.59 587.16,1.8 583.65,1.8 C580.23,1.8 577.53,4.59 577.53,8.01 C577.53,11.43 580.23,14.22 583.65,14.22 Z M578.25,72.72 C578.25,77.94 576,80.91 571.95,80.91 C569.97,80.91 567.81,79.83 566.64,79.11 C565.83,78.66 564.84,78.84 564.48,79.56 L561.51,85.32 C561.15,85.95 561.24,86.94 561.87,87.39 C563.4,88.83 567.72,90.9 572.49,90.9 C582.03,90.9 589.23,84.6 589.23,72.72 L589.23,28.71 C589.23,27.72 588.42,27 587.52,27 L579.96,27 C579.06,27 578.25,27.72 578.25,28.71 L578.25,72.72 Z"
      id="path-19"
    />
    <path
      d="M600.03,61.29 C600.03,62.19 600.84,63 601.74,63 L609.03,63 C609.93,63 610.74,62.19 610.74,61.29 L610.74,41.49 C611.64,39.06 613.8,35.82 618.3,35.82 C622.89,35.82 624.96,38.79 624.96,43.47 L624.96,61.29 C624.96,62.19 625.68,63 626.67,63 L633.42,63 C634.32,63 635.13,62.19 635.13,61.29 L635.13,43.02 C635.13,41.4 635.04,39.6 635.04,39.6 C635.04,39.6 637.38,35.82 642.6,35.82 C647.1,35.82 649.35,38.79 649.35,43.47 L649.35,61.29 C649.35,62.19 650.07,63 651.06,63 L658.35,63 C659.34,63 660.06,62.19 660.06,61.29 L660.06,44.1 C660.06,34.65 655.83,26.1 644.31,26.1 C637.83,26.1 633.15,30.06 631.62,31.68 C628.65,28.08 625.05,26.1 619.92,26.1 C613.53,26.1 609.39,29.7 607.86,31.41 L606.6,27.99 C606.42,27.45 605.88,27 605.07,27 L601.74,27 C600.84,27 600.03,27.72 600.03,28.71 L600.03,61.29 Z"
      id="path-20"
    />
    <linearGradient x1="50%" y1="50%" x2="50%" y2="100%" id="linearGradient-21">
      <stop stop-color="#D96B48" offset="0%" />
      <stop stop-color="#DA5A48" offset="37.9360465%" />
      <stop stop-color="#DD3648" offset="100%" />
    </linearGradient>
    <path
      d="M670.14,61.29 C670.14,62.19 670.95,63 671.85,63 L679.41,63 C680.31,63 681.12,62.19 681.12,61.29 L681.12,1.71 C681.12,0.81 680.31,0 679.41,0 L671.85,0 C670.95,0 670.14,0.81 670.14,1.71 L670.14,61.29 Z"
      id="path-22"
    />
    <linearGradient x1="50%" y1="50%" x2="50%" y2="100%" id="linearGradient-23">
      <stop stop-color="#D96B48" offset="0%" />
      <stop stop-color="#DA5A48" offset="37.9360465%" />
      <stop stop-color="#DD3648" offset="100%" />
    </linearGradient>
    <path
      d="M762.21,21.24 C762.21,26.64 760.62,30.99 757.44,34.29 C755.04,36.81 752.055,38.595 748.485,39.645 C744.915,40.695 741,41.22 736.74,41.22 L725.94,41.22 L725.94,63 L712.62,63 L712.62,1.98 L733.77,1.98 C738.15,1.98 742.095,2.19 745.605,2.61 C749.115,3.03 752.25,4.32 755.01,6.48 C757.59,8.46 759.435,10.755 760.545,13.365 C761.655,15.975 762.21,18.6 762.21,21.24 Z M748.89,21.42 C748.89,19.38 748.455,17.79 747.585,16.65 C746.715,15.51 745.575,14.64 744.165,14.04 C742.755,13.44 741.18,13.065 739.44,12.915 C737.7,12.765 735.99,12.69 734.31,12.69 L725.94,12.69 L725.94,30.33 L735.39,30.33 C737.25,30.33 738.99,30.21 740.61,29.97 C742.23,29.73 743.655,29.28 744.885,28.62 C746.115,27.96 747.09,27.06 747.81,25.92 C748.53,24.78 748.89,23.28 748.89,21.42 Z"
      id="path-24"
    />
    <linearGradient x1="50%" y1="50%" x2="50%" y2="100%" id="linearGradient-25">
      <stop stop-color="#D96B48" offset="0%" />
      <stop stop-color="#DA5A48" offset="37.9360465%" />
      <stop stop-color="#DD3648" offset="100%" />
    </linearGradient>
    <polygon id="path-26" points="768.96 63 768.96 1.98 781.56 1.98 781.56 63" />
    <linearGradient x1="50%" y1="50%" x2="50%" y2="100%" id="linearGradient-27">
      <stop stop-color="#D96B48" offset="0%" />
      <stop stop-color="#DA5A48" offset="37.9360465%" />
      <stop stop-color="#DD3648" offset="100%" />
    </linearGradient>
    <path
      d="M821.88,63 L821.52,57.6 C821.46,57.72 821.13,58.125 820.53,58.815 C819.93,59.505 819.06,60.255 817.92,61.065 C816.78,61.875 815.34,62.61 813.6,63.27 C811.86,63.93 809.82,64.26 807.48,64.26 C802.5,64.26 798.63,62.88 795.87,60.12 C793.77,58.02 792.48,55.68 792,53.1 C791.52,50.52 791.28,47.7 791.28,44.64 L791.28,19.71 L803.88,19.71 L803.88,44.1 C803.88,45.6 804,46.995 804.24,48.285 C804.48,49.575 805.05,50.67 805.95,51.57 C807.39,52.95 809.34,53.64 811.8,53.64 C812.88,53.64 814.005,53.445 815.175,53.055 C816.345,52.665 817.38,52.02 818.28,51.12 C819.3,50.1 819.945,48.975 820.215,47.745 C820.485,46.515 820.68,45.12 820.8,43.56 C820.86,42.9 820.89,42.24 820.89,41.58 C820.89,40.92 820.89,40.23 820.89,39.51 L820.89,19.71 L833.49,19.71 L833.49,63 L821.88,63 Z"
      id="path-28"
    />
    <linearGradient x1="50%" y1="50%" x2="50%" y2="100%" id="linearGradient-29">
      <stop stop-color="#D96B48" offset="0%" />
      <stop stop-color="#DA5A48" offset="37.9360465%" />
      <stop stop-color="#DD3648" offset="100%" />
    </linearGradient>
    <path
      d="M888.3,56.79 C888.3,58.47 888.27,60.09 888.21,61.65 C888.15,63.21 887.955,64.74 887.625,66.24 C887.295,67.74 886.785,69.18 886.095,70.56 C885.405,71.94 884.46,73.26 883.26,74.52 C881.34,76.5 878.805,78.075 875.655,79.245 C872.505,80.415 868.77,81 864.45,81 C860.91,81 857.88,80.655 855.36,79.965 C852.84,79.275 850.74,78.48 849.06,77.58 C847.38,76.68 846.12,75.81 845.28,74.97 C844.44,74.13 843.9,73.59 843.66,73.35 L850.41,65.7 C850.53,65.82 850.905,66.165 851.535,66.735 C852.165,67.305 853.02,67.905 854.1,68.535 C855.18,69.165 856.5,69.72 858.06,70.2 C859.62,70.68 861.42,70.92 863.46,70.92 C866.16,70.92 868.32,70.56 869.94,69.84 C871.56,69.12 872.79,68.22 873.63,67.14 C874.53,66.06 875.1,64.875 875.34,63.585 C875.58,62.295 875.7,61.02 875.7,59.76 L875.7,56.07 C875.4,56.37 874.875,56.865 874.125,57.555 C873.375,58.245 872.4,58.95 871.2,59.67 C870,60.39 868.545,61.02 866.835,61.56 C865.125,62.1 863.16,62.37 860.94,62.37 C858.78,62.37 856.56,61.98 854.28,61.2 C852,60.42 849.915,59.16 848.025,57.42 C846.135,55.68 844.59,53.4 843.39,50.58 C842.19,47.76 841.59,44.31 841.59,40.23 C841.59,37.65 842.01,35.04 842.85,32.4 C843.69,29.76 844.95,27.39 846.63,25.29 C848.31,23.19 850.44,21.465 853.02,20.115 C855.6,18.765 858.63,18.09 862.11,18.09 C864.27,18.09 866.16,18.39 867.78,18.99 C869.4,19.59 870.795,20.265 871.965,21.015 C873.135,21.765 874.065,22.53 874.755,23.31 C875.445,24.09 875.94,24.66 876.24,25.02 L876.42,19.71 L888.3,19.71 L888.3,56.79 Z M854.55,40.41 C854.55,44.01 855.465,46.98 857.295,49.32 C859.125,51.66 861.69,52.83 864.99,52.83 C868.11,52.83 870.705,51.69 872.775,49.41 C874.845,47.13 875.88,44.1 875.88,40.32 C875.88,36.66 874.92,33.66 873,31.32 C871.08,28.98 868.5,27.81 865.26,27.81 C863.46,27.81 861.885,28.155 860.535,28.845 C859.185,29.535 858.075,30.465 857.205,31.635 C856.335,32.805 855.675,34.155 855.225,35.685 C854.775,37.215 854.55,38.79 854.55,40.41 Z"
      id="path-30"
    />
    <linearGradient x1="50%" y1="50%" x2="50%" y2="100%" id="linearGradient-31">
      <stop stop-color="#D96B48" offset="0%" />
      <stop stop-color="#DA5A48" offset="37.9360465%" />
      <stop stop-color="#DD3648" offset="100%" />
    </linearGradient>
    <path
      d="M911.79,7.74 C911.73,9.66 911.055,11.28 909.765,12.6 C908.475,13.92 906.78,14.58 904.68,14.58 C902.58,14.58 900.87,13.92 899.55,12.6 C898.23,11.28 897.57,9.66 897.57,7.74 C897.57,5.82 898.23,4.2 899.55,2.88 C900.87,1.56 902.58,0.9 904.68,0.9 C906.78,0.9 908.49,1.56 909.81,2.88 C911.13,4.2 911.79,5.82 911.79,7.74 Z M898.38,63 L898.38,19.71 L910.98,19.71 L910.98,63 L898.38,63 Z"
      id="path-32"
    />
    <linearGradient x1="50%" y1="50%" x2="50%" y2="100%" id="linearGradient-33">
      <stop stop-color="#D96B48" offset="0%" />
      <stop stop-color="#DA5A48" offset="37.9360465%" />
      <stop stop-color="#DD3648" offset="100%" />
    </linearGradient>
    <path
      d="M950.85,63 L950.85,38.52 C950.85,36.84 950.73,35.28 950.49,33.84 C950.25,32.4 949.53,31.26 948.33,30.42 C947.73,29.94 946.995,29.55 946.125,29.25 C945.255,28.95 944.19,28.8 942.93,28.8 C941.85,28.8 940.71,28.995 939.51,29.385 C938.31,29.775 937.26,30.42 936.36,31.32 C935.04,32.64 934.275,34.29 934.065,36.27 C933.855,38.25 933.75,40.35 933.75,42.57 L933.75,63 L921.15,63 L921.15,19.71 L933.03,19.71 C933.03,20.67 933.06,21.51 933.12,22.23 C933.12,22.89 933.135,23.49 933.165,24.03 C933.195,24.57 933.21,24.81 933.21,24.75 C933.27,24.69 933.615,24.3 934.245,23.58 C934.875,22.86 935.79,22.095 936.99,21.285 C938.19,20.475 939.675,19.74 941.445,19.08 C943.215,18.42 945.24,18.09 947.52,18.09 C949.74,18.09 951.825,18.42 953.775,19.08 C955.725,19.74 957.57,20.94 959.31,22.68 C961.11,24.48 962.25,26.595 962.73,29.025 C963.21,31.455 963.45,33.9 963.45,36.36 L963.45,63 L950.85,63 Z"
      id="path-34"
    />
    <linearGradient x1="50%" y1="50%" x2="50%" y2="100%" id="linearGradient-35">
      <stop stop-color="#D96B48" offset="0%" />
      <stop stop-color="#DD3648" offset="100%" />
    </linearGradient>
    <linearGradient x1="50%" y1="0%" x2="50%" y2="100%" id="linearGradient-36">
      <stop stop-color="#D96B48" offset="0%" />
      <stop stop-color="#DD3648" offset="100%" />
    </linearGradient>
    <linearGradient x1="50%" y1="0%" x2="50%" y2="100%" id="linearGradient-37">
      <stop stop-color="#D96B48" offset="0%" />
      <stop stop-color="#DD3648" offset="100%" />
    </linearGradient>
  </defs>
  <g id="Page-1" stroke="none" stroke-width="1" fill="none" fill-rule="evenodd">
    <g id="webpack-mjml-Plugin" filter="url(#filter-1)" transform="translate(6.990000, 6.000000)" fill-rule="nonzero">
      <g>
        <g id="Path">
          <use fill="#FFFFFF" xlink:href="#path-3" />
          <use fill="url(#linearGradient-2)" xlink:href="#path-3" />
        </g>
        <g id="Shape">
          <use fill="#FFFFFF" xlink:href="#path-5" />
          <use fill="url(#linearGradient-4)" xlink:href="#path-5" />
        </g>
        <g id="Shape">
          <use fill="#FFFFFF" xlink:href="#path-7" />
          <use fill="url(#linearGradient-6)" xlink:href="#path-7" />
        </g>
        <g id="Shape">
          <use fill="#FFFFFF" xlink:href="#path-9" />
          <use fill="url(#linearGradient-8)" xlink:href="#path-9" />
        </g>
        <g id="Shape">
          <use fill="#FFFFFF" xlink:href="#path-11" />
          <use fill="url(#linearGradient-10)" xlink:href="#path-11" />
        </g>
        <g id="Path">
          <use fill="#FFFFFF" xlink:href="#path-13" />
          <use fill="url(#linearGradient-12)" xlink:href="#path-13" />
        </g>
        <g id="Path">
          <use fill="#FFFFFF" xlink:href="#path-15" />
          <use fill="url(#linearGradient-14)" xlink:href="#path-15" />
        </g>
        <g id="Path">
          <use fill="#FFFFFF" xlink:href="#path-17" />
          <use fill="url(#linearGradient-16)" xlink:href="#path-17" />
        </g>
        <g id="Shape">
          <use fill="#FFFFFF" xlink:href="#path-19" />
          <use fill="url(#linearGradient-18)" xlink:href="#path-19" />
        </g>
        <g id="Path">
          <use fill="#FFFFFF" xlink:href="#path-20" />
          <use fill="url(#linearGradient-16)" xlink:href="#path-20" />
        </g>
        <g id="Path">
          <use fill="#FFFFFF" xlink:href="#path-22" />
          <use fill="url(#linearGradient-21)" xlink:href="#path-22" />
        </g>
        <g id="Shape">
          <use fill="#FFFFFF" xlink:href="#path-24" />
          <use fill="url(#linearGradient-23)" xlink:href="#path-24" />
        </g>
        <g id="Path">
          <use fill="#FFFFFF" xlink:href="#path-26" />
          <use fill="url(#linearGradient-25)" xlink:href="#path-26" />
        </g>
        <g id="Path">
          <use fill="#FFFFFF" xlink:href="#path-28" />
          <use fill="url(#linearGradient-27)" xlink:href="#path-28" />
        </g>
        <g id="Shape">
          <use fill="#FFFFFF" xlink:href="#path-30" />
          <use fill="url(#linearGradient-29)" xlink:href="#path-30" />
        </g>
        <g id="Shape">
          <use fill="#FFFFFF" xlink:href="#path-32" />
          <use fill="url(#linearGradient-31)" xlink:href="#path-32" />
        </g>
        <g id="Path">
          <use fill="#FFFFFF" xlink:href="#path-34" />
          <use fill="url(#linearGradient-33)" xlink:href="#path-34" />
        </g>
      </g>
      <g id="mjml" transform="translate(413.010000, 6.000000)">
        <path
          d="M7.2487725,0 L35.7512275,0 C39.7626841,0 43,3.34951456 43,7.5 C43,11.6504854 39.7626841,15 35.7512275,15 L7.2487725,15 C3.23731588,15 0,11.6504854 0,7.5 C0,3.34951456 3.23731588,0 7.2487725,0 Z"
          id="Path"
          fill="url(#linearGradient-35)"
        />
        <circle id="Oval" fill="#D96B48" cx="54.5" cy="7.5" r="7.5" />
        <path
          d="M25.8056715,21.0187337 L54.1943285,21.0187337 C58.2296238,20.7281991 61.698562,23.8514462 61.9817406,27.9915644 C62.2649192,32.1316827 59.220749,35.6907317 55.1854536,35.9812663 C54.9730697,35.9812663 54.6898911,35.9812663 54.4775071,35.9812663 L25.8056715,35.9812663 C21.7703762,36.2718009 18.301438,33.1485538 18.0182594,29.0084356 C17.7350808,24.8683173 20.779251,21.3092683 24.8145464,21.0187337 C25.0269303,21.0187337 25.3101089,21.0187337 25.5224929,21.0187337 C25.5224929,21.0187337 25.8056715,21.0187337 25.8056715,21.0187337 Z"
          id="Path"
          fill="#D96B48"
        />
        <circle id="Oval" fill="url(#linearGradient-36)" cx="7.5" cy="28.5" r="7.5" />
        <path
          d="M7.2487725,42 L35.7512275,42 C39.7626841,42 43,45.3495146 43,49.5 L43,49.5 C43,53.6504854 39.7626841,57 35.7512275,57 L7.2487725,57 C3.23731588,57 0,53.6504854 0,49.5 L0,49.5 C0,45.3495146 3.23731588,42 7.2487725,42 Z"
          id="Path"
          fill="url(#linearGradient-37)"
        />
        <circle id="Oval" fill="#D96B48" cx="54.5" cy="49.5" r="7.5" />
      </g>
    </g>
  </g>
</svg>
